<?xml version="1.0" encoding="iso-8859-1"?>
<!-- Generator: Adobe Illustrator 19.0.0, SVG Export Plug-In . SVG Version: 6.00 Build 0)  -->
<svg version="1.1" id="Layer_1" xmlns="http://www.w3.org/2000/svg" xmlns:xlink="http://www.w3.org/1999/xlink" x="0px" y="0px"
	 viewBox="0 0 512.009 512.009" style="enable-background:new 0 0 512.009 512.009;" xml:space="preserve">
<g>
	<g>
		<g>
			<path d="M278.793,315.055c0.939,0.333,1.903,0.495,2.842,0.495c3.516,0,6.81-2.193,8.047-5.7
				c1.57-4.437-0.768-9.318-5.205-10.888c-57.865-20.437-96.742-75.426-96.742-136.823c0-3.157,0.094-6.05,0.273-8.917
				c16.307,1.98,17.971,10.684,19.985,21.359c1.621,8.516,4.634,24.371,23.637,21.606c11.844-1.732,22.118-8.781,28.937-19.831
				c7.671-12.459,10.155-28.834,6.016-40.175c0.956-1.485,7.279-3.763,13.619-1.894c6.263,1.852,6.989,6.204,6.989,9.318
				c0,11.674-2.287,23.842-4.13,33.621c-2.799,14.865-4.651,24.687,1.34,30.669c0.99,0.998,2.56,2.21,4.489,3.627
				c8.516,6.246,21.376,15.676,10.47,41.122c-8.013,18.705-9.515,46.089,28.894,70.315c1.357,0.862,2.944,1.314,4.548,1.314
				c89.404,0,162.133-72.73,162.133-162.133c0-2.893-0.077-5.769-0.222-8.619c-0.256-4.71-4.309-8.422-8.969-8.073
				c-4.71,0.239-8.329,4.258-8.081,8.96c0.128,2.569,0.205,5.137,0.205,7.731c0,79.155-63.735,143.718-142.583,145.05
				c-28.382-18.799-25.199-36.241-20.241-47.821c16.247-37.914-7.219-55.125-16.051-61.611c-0.563-0.41-1.084-0.768-1.527-1.109
				c-0.102-3.14,1.306-10.641,2.372-16.265c1.963-10.479,4.42-23.518,4.42-36.779c0-11.102-5.649-19.968-15.497-24.32
				c-10.965-4.847-25.626-3.081-33.425,4.019c-5.137,4.668-6.921,11.29-4.779,17.698c2.048,6.144,1.152,17.186-4.523,26.402
				c-2.91,4.727-8.201,10.624-16.862,11.887c-1.485,0.222-2.185,0.111-2.253,0.171c-0.836-1.084-1.63-5.274-2.15-8.064
				c-2.364-12.459-6.758-35.669-44.501-35.669c-0.401,0-0.751,0.179-1.143,0.23c-0.58,0.085-1.152,0.145-1.698,0.35
				c-0.512,0.179-0.939,0.444-1.399,0.717c-0.486,0.282-0.947,0.546-1.365,0.922c-0.41,0.358-0.717,0.777-1.05,1.212
				c-0.333,0.427-0.657,0.845-0.905,1.34c-0.256,0.512-0.393,1.067-0.538,1.63c-0.102,0.384-0.316,0.7-0.367,1.101
				c-0.794,6.494-1.135,12.151-1.135,18.91C170.667,230.763,214.118,292.212,278.793,315.055z"/>
			<path d="M185.097,118.976c4.463,1.579,9.327-0.759,10.888-5.197C216.431,55.932,271.42,17.071,332.8,17.071
				c9.583,0,19.115,0.939,28.45,2.79c-0.077,5.18,0.486,10.709,1.024,16.128c0.503,4.958,1.297,12.954,0.623,16.137
				c-16.853,5.948-28.902,16.367-33.161,28.749c-3.123,9.079-1.8,18.628,3.712,26.906c2.884,4.326,5.41,9.216,7.842,13.926
				c5.077,9.83,11.691,22.647,22.246,22.647c2.253,0,4.676-0.58,7.305-1.894c6.588-3.302,10.829-10.854,15.3-18.842
				c4.318-7.723,9.702-17.331,14.925-17.331c3.004,0,4.147,0.555,6.434,11.366c1.536,7.262,3.447,16.299,11.52,20.326
				c11.213,5.623,45.909,0.102,65.399-8.183c0.358-0.154,0.589-0.435,0.913-0.631c0.503-0.29,0.981-0.58,1.399-0.956
				c0.418-0.375,0.734-0.785,1.067-1.229c0.324-0.435,0.631-0.853,0.879-1.348c0.239-0.486,0.375-0.99,0.521-1.527
				c0.145-0.529,0.265-1.041,0.299-1.596c0.043-0.546-0.026-1.092-0.094-1.655c-0.051-0.384,0.017-0.751-0.077-1.135
				c-12.092-44.706-42.889-82.193-84.48-102.861c-4.25-2.108-9.336-0.375-11.443,3.84c-2.099,4.224-0.367,9.344,3.849,11.443
				c34.901,17.331,61.099,47.966,73.173,84.668c-17.672,5.726-39.279,7.629-43.571,6.042c-1.033-1.024-2.048-5.845-2.654-8.73
				c-1.843-8.704-5.265-24.9-23.134-24.9c-15.232,0-23.313,14.447-29.815,26.061c-2.014,3.576-5.205,9.284-7.296,11.315
				c-2.116-2.295-5.299-8.456-7.501-12.715c-2.517-4.898-5.385-10.445-8.806-15.565c-2.569-3.857-3.166-7.851-1.775-11.896
				c2.594-7.543,11.511-14.49,23.842-18.586c12.501-4.147,10.923-19.772,9.54-33.553c-0.691-6.869-1.476-14.652-0.461-19.268
				c0.99-4.506-1.783-8.977-6.255-10.103c-12.919-3.26-26.3-4.907-39.74-4.907c-68.599,0-130.048,43.435-152.9,108.083
				C178.321,112.534,180.651,117.406,185.097,118.976z"/>
			<path d="M402.475,172.48c-10.257,0-17.28,6.187-22.938,11.162c-2.56,2.253-6.067,5.342-7.68,5.342
				c-0.341,0-0.794-0.188-1.109-0.341c-7.817-3.917-17.306,1.109-21.811,12.006c-3.226,7.774-4.25,19.575,3.43,27.255
				c14.891,14.891,28.032,18.014,36.437,18.014c13.432,0,24.499-8.175,28.894-21.35c1.485-4.463,4.036-8.457,6.502-12.322
				c4.838-7.578,12.954-20.267-0.751-31.181C416.196,175.288,409.344,172.48,402.475,172.48z M409.813,203.064
				c-2.739,4.292-6.153,9.643-8.303,16.111c-2.082,6.238-6.605,9.677-12.706,9.677c-7.322,0-15.983-4.625-24.371-13.013
				c-0.666-0.674-0.99-2.27-0.845-4.173c0.23-2.756,1.297-5.222,2.219-6.63c1.997,0.674,4.028,1.016,6.059,1.016
				c8.038,0,13.841-5.103,18.953-9.6c4.028-3.55,7.842-6.903,11.656-6.903c2.807,0,6.289,1.638,10.342,4.864
				c0.751,0.606,1.067,0.998,1.152,1.015C413.79,196.834,411.409,200.572,409.813,203.064z"/>
			<path d="M507.418,358.405c-4.557-7.893-11.921-13.542-20.727-15.898c-8.815-2.364-17.997-1.152-25.361,3.123l-98.219,47.812
				c-15.266,7.629-30.677,7.629-64.444,7.629c-33.015,0-83.422-8.337-83.934-8.414c-4.651-0.777-9.045,2.364-9.813,7.006
				c-0.777,4.651,2.364,9.054,7.014,9.822c2.116,0.358,52.292,8.653,86.733,8.653c35.422,0,53.205,0,71.987-9.395l98.68-48.051
				c3.942-2.287,8.533-2.901,12.945-1.707c4.395,1.186,8.081,4.011,10.359,7.953c2.278,3.951,2.884,8.55,1.715,12.954
				c-1.178,4.403-4.011,8.081-8.201,10.505l-115.379,71.808c-0.239,0.162-24.858,15.667-80.64,15.667
				c-48.375,0-123.11-41.182-124.186-41.762c-0.777-0.393-19.285-9.438-55.014-9.438c-4.719,0-8.533,3.823-8.533,8.533
				s3.814,8.533,8.533,8.533c31.036,0,47.027,7.467,47.061,7.467v-0.009c3.226,1.792,79.334,43.742,132.139,43.742
				c61.602,0,88.926-17.749,89.83-18.355l114.961-71.552c7.902-4.557,13.551-11.921,15.906-20.727
				C513.195,375.488,511.974,366.289,507.418,358.405z"/>
			<path d="M42.667,456.538c0-7.057-5.743-12.8-12.8-12.8c-7.057,0-12.8,5.743-12.8,12.8c0,7.057,5.743,12.8,12.8,12.8
				C36.924,469.338,42.667,463.595,42.667,456.538z"/>
			<path d="M110.933,324.271H179.2c9.958,0,26.88,12.698,41.813,23.893c18.722,14.046,36.412,27.307,52.053,27.307h51.191
				c12.962,0,19.396,5.879,19.567,6.033c1.664,1.664,3.849,2.5,6.033,2.5c2.185,0,4.369-0.836,6.033-2.5
				c3.337-3.337,3.337-8.73,0-12.066c-1.126-1.126-11.605-11.034-31.633-11.034h-51.191c-9.958,0-26.88-12.698-41.813-23.893
				c-18.722-14.046-36.412-27.307-52.053-27.307h-68.267c-4.719,0-8.533,3.823-8.533,8.533S106.214,324.271,110.933,324.271z"/>
			<path d="M59.733,273.071h-51.2c-4.719,0-8.533,3.823-8.533,8.533s3.814,8.533,8.533,8.533h51.2c4.71,0,8.533,3.831,8.533,8.533
				v187.733c0,4.702-3.823,8.533-8.533,8.533h-51.2c-4.719,0-8.533,3.823-8.533,8.533s3.814,8.533,8.533,8.533h51.2
				c14.114,0,25.6-11.486,25.6-25.6V298.671C85.333,284.557,73.847,273.071,59.733,273.071z"/>
		</g>
	</g>
</g>
<g>
</g>
<g>
</g>
<g>
</g>
<g>
</g>
<g>
</g>
<g>
</g>
<g>
</g>
<g>
</g>
<g>
</g>
<g>
</g>
<g>
</g>
<g>
</g>
<g>
</g>
<g>
</g>
<g>
</g>
</svg>
